<svg width="25" height="25" viewBox="0 0 25 25" fill="none" xmlns="http://www.w3.org/2000/svg">
<g clip-path="url(#clip0_15268_254)">
<path d="M1.56269 1.7011C-0.401896 3.74173 0.000187221 5.90943 0.000187221 12.4948C0.000187221 17.9636 -0.95398 23.4459 4.03977 24.7365C5.59915 25.1376 19.4158 25.1376 20.9731 24.7344C23.0523 24.198 24.7439 22.5115 24.9752 19.5709C25.0075 19.1605 25.0075 5.83652 24.9741 5.41777C24.7283 2.28548 22.8002 0.480267 20.2596 0.114642C19.6773 0.0302668 19.5606 0.00526683 16.5731 5.84989e-05C5.97623 0.00526683 3.65331 -0.466608 1.56269 1.7011V1.7011Z" fill="url(#paint0_linear_15268_254)"/>
<path d="M12.498 3.26977C8.71576 3.26977 5.12409 2.93331 3.75222 6.45415C3.18555 7.90831 3.26784 9.79686 3.26784 12.501C3.26784 14.8739 3.1918 17.1041 3.75222 18.5469C5.12097 22.0698 8.7418 21.7323 12.496 21.7323C16.1178 21.7323 19.8522 22.1094 21.2408 18.5469C21.8085 17.0781 21.7251 15.2177 21.7251 12.501C21.7251 8.89477 21.9241 6.56665 20.1751 4.81873C18.4043 3.0479 16.0095 3.26977 12.4939 3.26977H12.498ZM11.671 4.93331C19.5605 4.92081 20.5647 4.04373 20.0105 16.2281C19.8137 20.5375 16.5324 20.0646 12.4991 20.0646C5.14492 20.0646 4.93347 19.8541 4.93347 12.4969C4.93347 5.05415 5.5168 4.93748 11.671 4.93123V4.93331ZM17.4251 6.46561C16.8137 6.46561 16.3178 6.96144 16.3178 7.5729C16.3178 8.18436 16.8137 8.68019 17.4251 8.68019C18.0366 8.68019 18.5324 8.18436 18.5324 7.5729C18.5324 6.96144 18.0366 6.46561 17.4251 6.46561V6.46561ZM12.498 7.7604C9.88034 7.7604 7.75846 9.88332 7.75846 12.501C7.75846 15.1187 9.88034 17.2406 12.498 17.2406C15.1158 17.2406 17.2366 15.1187 17.2366 12.501C17.2366 9.88332 15.1158 7.7604 12.498 7.7604V7.7604ZM12.498 9.42394C16.5658 9.42394 16.571 15.5781 12.498 15.5781C8.43138 15.5781 8.42513 9.42394 12.498 9.42394Z" fill="white"/>
</g>
<defs>
<linearGradient id="paint0_linear_15268_254" x1="1.61063" y1="23.4033" x2="24.8455" y2="3.29378" gradientUnits="userSpaceOnUse">
<stop stop-color="#8E7F42"/>
<stop offset="0.5" stop-color="#FF543E"/>
<stop offset="1" stop-color="#C837AB"/>
</linearGradient>
<clipPath id="clip0_15268_254">
<rect width="25" height="25" fill="white"/>
</clipPath>
</defs>
</svg>
