<svg width="25" height="25" viewBox="0 0 25 25" fill="none" xmlns="http://www.w3.org/2000/svg">
<g clip-path="url(#clip0_15268_249)">
<path d="M12.4998 25C19.4032 25 24.9996 19.4037 24.9996 12.5003C24.9996 5.59683 19.4032 0.000488281 12.4998 0.000488281C5.59634 0.000488281 0 5.59683 0 12.5003C0 19.4037 5.59634 25 12.4998 25Z" fill="#CB2027"/>
<path d="M13.5086 16.7388C12.5636 16.6657 12.1665 16.1971 11.4254 15.7473C11.0181 17.8843 10.5203 19.9329 9.04591 21.0031C8.59024 17.7731 9.71392 15.3471 10.2358 12.7719C9.34627 11.2746 10.3427 8.26072 12.2189 9.00338C14.528 9.9165 10.2197 14.571 13.1119 15.1523C16.1314 15.7593 17.364 9.91315 15.4914 8.0116C12.7859 5.26623 7.61629 7.94921 8.252 11.8793C8.40686 12.8401 9.39975 13.1318 8.64862 14.4576C6.91708 14.0741 6.40059 12.7084 6.46699 10.8878C6.57416 7.90755 9.14484 5.82083 11.7233 5.53206C14.9843 5.16708 18.045 6.72949 18.4674 9.79684C18.9427 13.2588 16.9952 17.008 13.5086 16.7388Z" fill="#F1F2F2"/>
</g>
<defs>
<clipPath id="clip0_15268_249">
<rect width="25" height="25" fill="white"/>
</clipPath>
</defs>
</svg>
