<svg width="25" height="25" viewBox="0 0 25 25" fill="none" xmlns="http://www.w3.org/2000/svg">
<g clip-path="url(#clip0_15268_244)">
<path d="M12.5 25C19.4036 25 25 19.4036 25 12.5C25 5.59644 19.4036 0 12.5 0C5.59644 0 0 5.59644 0 12.5C0 19.4036 5.59644 25 12.5 25Z" fill="#4D76A1"/>
<path fill-rule="evenodd" clip-rule="evenodd" d="M12.028 17.9824H13.0091C13.0091 17.9824 13.3055 17.9499 13.4568 17.7867C13.596 17.637 13.5916 17.3558 13.5916 17.3558C13.5916 17.3558 13.5724 16.0394 14.1834 15.8455C14.7857 15.6545 15.5591 17.1178 16.3789 17.6805C16.9988 18.1063 17.4698 18.0129 17.4698 18.0129L19.6618 17.9824C19.6618 17.9824 20.8084 17.9118 20.2647 17.0102C20.2202 16.9365 19.9481 16.3433 18.635 15.1244C17.2606 13.8488 17.4447 14.0551 19.1003 11.8485C20.1085 10.5046 20.5116 9.68419 20.3857 9.33279C20.2656 8.99811 19.5241 9.08657 19.5241 9.08657L17.0561 9.10195C17.0561 9.10195 16.8731 9.07699 16.7374 9.1581C16.6048 9.23765 16.5195 9.42304 16.5195 9.42304C16.5195 9.42304 16.1289 10.463 15.6079 11.3473C14.509 13.2135 14.0695 13.312 13.8899 13.1961C13.4722 12.9261 13.5764 12.1112 13.5764 11.5323C13.5764 9.72385 13.8507 8.96981 13.0423 8.77462C12.774 8.70978 12.5766 8.66699 11.8905 8.66009C11.0099 8.65095 10.2646 8.66276 9.84257 8.86954C9.56181 9.00702 9.34522 9.31341 9.47714 9.33101C9.64024 9.35285 10.0097 9.43061 10.2055 9.69733C10.4585 10.0414 10.4495 10.8141 10.4495 10.8141C10.4495 10.8141 10.5948 12.943 10.1102 13.2075C9.7775 13.3889 9.32116 13.0185 8.3414 11.3255C7.83938 10.4583 7.46035 9.49969 7.46035 9.49969C7.46035 9.49969 7.38727 9.32054 7.25691 9.22472C7.09871 9.10863 6.87767 9.07164 6.87767 9.07164L4.53244 9.08702C4.53244 9.08702 4.18038 9.09682 4.05114 9.2499C3.93616 9.38605 4.042 9.6677 4.042 9.6677C4.042 9.6677 5.87808 13.9633 7.95703 16.128C9.86329 18.1127 12.028 17.9824 12.028 17.9824Z" fill="white"/>
</g>
<defs>
<clipPath id="clip0_15268_244">
<rect width="25" height="25" fill="white"/>
</clipPath>
</defs>
</svg>
